<svg xmlns="http://www.w3.org/2000/svg" width="49.542" height="49.542" viewBox="0 0 49.542 49.542">
  <path id="instagram" d="M40,10.571h0a2.973,2.973,0,1,0,2.973,2.973A2.973,2.973,0,0,0,40,10.571Zm11.395,5.995a18.8,18.8,0,0,0-1.139-6.019,12.237,12.237,0,0,0-2.873-4.384A11.642,11.642,0,0,0,43,3.313a18.083,18.083,0,0,0-6.019-1.164C34.351,2,33.509,2,26.771,2s-7.58,0-10.206.149a18.083,18.083,0,0,0-6.019,1.164A11.841,11.841,0,0,0,6.162,6.162a11.642,11.642,0,0,0-2.849,4.384,18.083,18.083,0,0,0-1.164,6.019C2,19.191,2,20.033,2,26.771s0,7.58.149,10.206A18.083,18.083,0,0,0,3.313,43a11.642,11.642,0,0,0,2.849,4.384,11.84,11.84,0,0,0,4.384,2.849,18.082,18.082,0,0,0,6.019,1.164c2.626.149,3.468.149,10.206.149s7.58,0,10.206-.149A18.083,18.083,0,0,0,43,50.229a11.642,11.642,0,0,0,4.384-2.849A12.014,12.014,0,0,0,50.254,43a18.8,18.8,0,0,0,1.139-6.019c0-2.626.149-3.468.149-10.206S51.542,19.191,51.393,16.565ZM46.935,36.679a13.9,13.9,0,0,1-.842,4.607,7.58,7.58,0,0,1-1.858,2.849,7.9,7.9,0,0,1-2.849,1.858,13.9,13.9,0,0,1-4.607.842c-2.477.124-3.394.149-9.908.149s-7.431,0-9.908-.149a14.194,14.194,0,0,1-4.806-.743,8.1,8.1,0,0,1-2.725-1.858A7.431,7.431,0,0,1,7.6,41.386a13.723,13.723,0,0,1-.991-4.706c0-2.477-.149-3.394-.149-9.908s0-7.431.149-9.908a13.723,13.723,0,0,1,.867-4.706A7.431,7.431,0,0,1,9.431,9.431,7.778,7.778,0,0,1,12.156,7.45a14.194,14.194,0,0,1,4.706-.842c2.477,0,3.394-.149,9.908-.149s7.431,0,9.908.149a13.9,13.9,0,0,1,4.607.842,7.58,7.58,0,0,1,2.948,1.982,7.58,7.58,0,0,1,1.858,2.725,13.9,13.9,0,0,1,.842,4.706c.124,2.477.149,3.394.149,9.908S47.058,34.2,46.935,36.679ZM26.771,14.063a12.683,12.683,0,1,0,9.009,3.706A12.708,12.708,0,0,0,26.771,14.063Zm0,20.956a8.249,8.249,0,1,1,8.249-8.249,8.249,8.249,0,0,1-8.249,8.249Z" transform="translate(-2 -2)" fill="#fff"/>
</svg>
