<svg xmlns="http://www.w3.org/2000/svg" width="60.857" height="49.542" viewBox="0 0 60.857 49.542">
  <path id="twitter" d="M62.857,9.785a25.834,25.834,0,0,1-7.181,1.947,12.567,12.567,0,0,0,5.508-6.907,24.982,24.982,0,0,1-7.942,3.043,12.476,12.476,0,0,0-21.3,11.38A35.419,35.419,0,0,1,6.23,6.195a12.658,12.658,0,0,0-1.674,6.3,12.445,12.445,0,0,0,5.538,10.376,12.324,12.324,0,0,1-5.66-1.552v.152A12.476,12.476,0,0,0,14.476,33.641a11.959,11.959,0,0,1-3.347.517,14.91,14.91,0,0,1-2.343-.213A12.506,12.506,0,0,0,20.44,42.587a25.012,25.012,0,0,1-15.4,5.355A24.13,24.13,0,0,1,2,47.76a35.206,35.206,0,0,0,19.14,5.629A35.267,35.267,0,0,0,56.772,17.849V16.236A25.651,25.651,0,0,0,62.857,9.785Z" transform="translate(-2 -3.85)" fill="#fff"/>
</svg>
