<svg xmlns="http://www.w3.org/2000/svg" width="56.059" height="40.015" viewBox="0 0 56.059 40.015">
  <path id="discord" d="M51.643,21.09a23.706,23.706,0,0,0-13.45-5l-.673.768c8.166,2.45,11.961,6.053,11.961,6.053-11.683-6.433-26.566-6.387-38.718,0,0,0,3.939-3.795,12.586-6.245l-.48-.577a23.806,23.806,0,0,0-13.45,5A63.425,63.425,0,0,0,2.5,48.855s4.035,6.917,14.652,7.254c0,0,1.777-2.114,3.218-3.939-6.1-1.825-8.407-5.62-8.407-5.62A35.575,35.575,0,0,0,24.5,51.4a34.725,34.725,0,0,0,24.931-4.852s-2.4,3.891-8.695,5.669C42.18,54,43.91,56.061,43.91,56.061c10.615-.336,14.65-7.253,14.65-7.205A63.425,63.425,0,0,0,51.643,21.09Zm-30.072,23.3a5.106,5.106,0,0,1-4.9-5.284c.2-7.017,9.652-7,9.8,0A5.075,5.075,0,0,1,21.571,44.388Zm17.534,0a5.106,5.106,0,0,1-4.9-5.284c.216-7,9.554-7.007,9.8,0A5.075,5.075,0,0,1,39.105,44.388Z" transform="translate(-2.501 -16.093)" fill="#74cdf9"/>
</svg>
