<svg xmlns="http://www.w3.org/2000/svg" width="40.015" height="40.015" viewBox="0 0 40.015 40.015">
  <path id="instagram" d="M32.692,8.923h0a2.4,2.4,0,1,0,2.4,2.4A2.4,2.4,0,0,0,32.692,8.923Zm9.2,4.842a15.186,15.186,0,0,0-.92-4.862,9.884,9.884,0,0,0-2.321-3.541,9.4,9.4,0,0,0-3.541-2.3,14.606,14.606,0,0,0-4.862-.94C28.13,2,27.45,2,22.008,2s-6.122,0-8.243.12A14.606,14.606,0,0,0,8.9,3.06a9.564,9.564,0,0,0-3.541,2.3A9.4,9.4,0,0,0,3.06,8.9a14.606,14.606,0,0,0-.94,4.862C2,15.885,2,16.566,2,22.008s0,6.122.12,8.243a14.606,14.606,0,0,0,.94,4.862,9.4,9.4,0,0,0,2.3,3.541,9.564,9.564,0,0,0,3.541,2.3,14.605,14.605,0,0,0,4.862.94c2.121.12,2.8.12,8.243.12s6.122,0,8.243-.12a14.606,14.606,0,0,0,4.862-.94,9.4,9.4,0,0,0,3.541-2.3,9.7,9.7,0,0,0,2.321-3.541,15.186,15.186,0,0,0,.92-4.862c0-2.121.12-2.8.12-8.243S42.015,15.885,41.9,13.764Zm-3.6,16.246a11.224,11.224,0,0,1-.68,3.721,6.122,6.122,0,0,1-1.5,2.3,6.382,6.382,0,0,1-2.3,1.5,11.224,11.224,0,0,1-3.721.68c-2,.1-2.741.12-8,.12s-6,0-8-.12a11.464,11.464,0,0,1-3.881-.6,6.543,6.543,0,0,1-2.2-1.5,6,6,0,0,1-1.481-2.3,11.084,11.084,0,0,1-.8-3.8c0-2-.12-2.741-.12-8s0-6,.12-8a11.084,11.084,0,0,1,.7-3.8A6,6,0,0,1,8,8a6.282,6.282,0,0,1,2.2-1.6,11.464,11.464,0,0,1,3.8-.68c2,0,2.741-.12,8-.12s6,0,8,.12a11.224,11.224,0,0,1,3.721.68A6.122,6.122,0,0,1,36.113,8a6.122,6.122,0,0,1,1.5,2.2,11.224,11.224,0,0,1,.68,3.8c.1,2,.12,2.741.12,8S38.394,28.01,38.294,30.011ZM22.008,11.744a10.244,10.244,0,1,0,7.277,2.993,10.264,10.264,0,0,0-7.277-2.993Zm0,16.926a6.663,6.663,0,1,1,6.663-6.663,6.663,6.663,0,0,1-6.663,6.663Z" transform="translate(-2 -2)" fill="#74cdf9"/>
</svg>
