<svg xmlns="http://www.w3.org/2000/svg" width="49.155" height="40.015" viewBox="0 0 49.155 40.015">
  <path id="twitter" d="M51.155,8.644a20.866,20.866,0,0,1-5.8,1.573A10.15,10.15,0,0,0,49.8,4.638,20.178,20.178,0,0,1,43.388,7.1a10.077,10.077,0,0,0-17.2,9.192A28.608,28.608,0,0,1,5.416,5.744a10.224,10.224,0,0,0-1.352,5.088,10.052,10.052,0,0,0,4.473,8.381,9.954,9.954,0,0,1-4.571-1.253v.123a10.077,10.077,0,0,0,8.111,9.831,9.659,9.659,0,0,1-2.7.418,12.044,12.044,0,0,1-1.892-.172,10.1,10.1,0,0,0,9.413,6.98A20.2,20.2,0,0,1,4.458,39.464,19.49,19.49,0,0,1,2,39.316a28.436,28.436,0,0,0,15.459,4.547,28.485,28.485,0,0,0,28.78-28.706v-1.3A20.719,20.719,0,0,0,51.155,8.644Z" transform="translate(-2 -3.849)" fill="#74cdf9"/>
</svg>
